<svg width="22" height="22" viewBox="0 0 22 22" fill="none" xmlns="http://www.w3.org/2000/svg">
<rect width="22" height="22" rx="4" fill="#F1EFFD"/>
<path d="M10.2417 11.7578H6.95623C6.74341 11.7578 6.56382 11.6846 6.41744 11.5382C6.27106 11.3918 6.19788 11.2122 6.19788 10.9994C6.19788 10.7866 6.27106 10.6071 6.41744 10.4607C6.56382 10.3143 6.74341 10.2411 6.95623 10.2411H10.2417V6.95562C10.2417 6.7428 10.3149 6.56321 10.4613 6.41683C10.6077 6.27045 10.7873 6.19727 11.0001 6.19727C11.2129 6.19727 11.3924 6.27045 11.5388 6.41683C11.6852 6.56321 11.7584 6.7428 11.7584 6.95562V10.2411H15.0439C15.2567 10.2411 15.4363 10.3143 15.5827 10.4607C15.7291 10.6071 15.8022 10.7866 15.8022 10.9994C15.8022 11.2122 15.7291 11.3918 15.5827 11.5382C15.4363 11.6846 15.2567 11.7578 15.0439 11.7578H11.7584V15.0433C11.7584 15.2561 11.6852 15.4357 11.5388 15.5821C11.3924 15.7284 11.2129 15.8016 11.0001 15.8016C10.7873 15.8016 10.6077 15.7284 10.4613 15.5821C10.3149 15.4357 10.2417 15.2561 10.2417 15.0433V11.7578Z" fill="#5534DA"/>
</svg>
